# xmcd
#
# Track frame offsets: 
#        150
#        14312
#        27626
#        41714
#        54215
#        65683
#        78403
#        90109
#        100954
#        115510
#        128451
#
# Disc length: 1900 seconds
#
# Revision: 0
# Processed by: cddbd v1.5.2PL0 Copyright (c) Steve Scherf et al.
# Submitted via: ExactAudioCopy v0.99pb3
#
DISCID=7d076a0b
DTITLE=Larry Butler and Willie Nelson - Songs of Hank Williams
DYEAR=2006
DGENRE=Country
TTITLE0=01. Heavy Hank
TTITLE1=02. Take These Chains From My Heart
TTITLE2=03. May You Never Be Alone Like Me
TTITLE3=04. Jambalaya
TTITLE4=05. My Son Calls Another Man Daddy
TTITLE5=06. Why Should We Try Anymore
TTITLE6=07. Hey, Good Lookin'
TTITLE7=08. I Can't Help It
TTITLE8=09. Wedding Bells
TTITLE9=10. Mind Your Own Business
TTITLE10=11. I Told A Lie To My Heart
EXTD=
EXTT0=
EXTT1=
EXTT2=
EXTT3=
EXTT4=
EXTT5=
EXTT6=
EXTT7=
EXTT8=
EXTT9=
EXTT10=
PLAYORDER=
